<mxfile host="app.diagrams.net" modified="2023-07-08T20:15:21.381Z" agent="Mozilla/5.0 (Windows NT 10.0; Win64; x64) AppleWebKit/537.36 (KHTML, like Gecko) Chrome/114.0.0.0 Safari/537.36" etag="vdkNOll0zq3MZD54B0Gm" version="21.6.1" type="device" pages="2">
  <diagram name="Сторінка-1" id="2Ler_9lWGVCFeVGN3lyG">
    <mxGraphModel dx="1434" dy="841" grid="1" gridSize="10" guides="1" tooltips="1" connect="1" arrows="1" fold="1" page="1" pageScale="1" pageWidth="827" pageHeight="1169" math="0" shadow="0">
      <root>
        <mxCell id="0" />
        <mxCell id="1" parent="0" />
        <mxCell id="BdWng1-zWT3dLYYhUtsh-1" value="Time" style="rounded=0;whiteSpace=wrap;html=1;fillColor=#d5e8d4;strokeColor=#82b366;" parent="1" vertex="1">
          <mxGeometry x="130" y="80" width="150" height="80" as="geometry" />
        </mxCell>
        <mxCell id="BdWng1-zWT3dLYYhUtsh-2" value="Sound" style="rounded=0;whiteSpace=wrap;html=1;fillColor=#d5e8d4;strokeColor=#82b366;" parent="1" vertex="1">
          <mxGeometry x="130" y="240" width="150" height="80" as="geometry" />
        </mxCell>
        <mxCell id="BdWng1-zWT3dLYYhUtsh-3" value="Picture" style="rounded=0;whiteSpace=wrap;html=1;fillColor=#d5e8d4;strokeColor=#82b366;" parent="1" vertex="1">
          <mxGeometry x="130" y="160" width="150" height="80" as="geometry" />
        </mxCell>
        <mxCell id="BdWng1-zWT3dLYYhUtsh-4" value="Start" style="rounded=0;whiteSpace=wrap;html=1;" parent="1" vertex="1">
          <mxGeometry x="330" y="80" width="150" height="80" as="geometry" />
        </mxCell>
        <mxCell id="BdWng1-zWT3dLYYhUtsh-5" value="The Spirit: Warrior... i need your help. But First.Let me tell you a story." style="rounded=0;whiteSpace=wrap;html=1;" parent="1" vertex="1">
          <mxGeometry x="330" y="240" width="150" height="80" as="geometry" />
        </mxCell>
        <mxCell id="BdWng1-zWT3dLYYhUtsh-6" value="Black screen with Spirit Image" style="rounded=0;whiteSpace=wrap;html=1;" parent="1" vertex="1">
          <mxGeometry x="330" y="160" width="150" height="80" as="geometry" />
        </mxCell>
        <mxCell id="BdWng1-zWT3dLYYhUtsh-7" value="Event" style="rounded=0;whiteSpace=wrap;html=1;fillColor=#d5e8d4;strokeColor=#82b366;" parent="1" vertex="1">
          <mxGeometry x="130" y="320" width="150" height="80" as="geometry" />
        </mxCell>
        <mxCell id="BdWng1-zWT3dLYYhUtsh-9" value="The Spirit: Warrior... i need your help. But First.Let me tell you a story." style="rounded=0;whiteSpace=wrap;html=1;" parent="1" vertex="1">
          <mxGeometry x="330" y="320" width="150" height="80" as="geometry" />
        </mxCell>
      </root>
    </mxGraphModel>
  </diagram>
  <diagram id="iT8UZsJrgFeD56fT97JK" name="Сторінка-2">
    <mxGraphModel dx="683" dy="400" grid="1" gridSize="10" guides="1" tooltips="1" connect="1" arrows="1" fold="1" page="1" pageScale="1" pageWidth="827" pageHeight="1169" math="0" shadow="0">
      <root>
        <mxCell id="0" />
        <mxCell id="1" parent="0" />
        <mxCell id="DYX63zbx7CjbTbCFi6AU-1" value="Cut scene Script" style="text;html=1;strokeColor=none;fillColor=none;align=center;verticalAlign=middle;whiteSpace=wrap;rounded=0;fontSize=22;" parent="1" vertex="1">
          <mxGeometry x="280" y="40" width="200" height="40" as="geometry" />
        </mxCell>
        <mxCell id="DYX63zbx7CjbTbCFi6AU-2" value="The Spirit: Warrior...&amp;nbsp;thank you for responding to the request for help.&lt;span style=&quot;background-color: initial;&quot;&gt;&amp;nbsp;But first let me tell you a story. Follow me..&lt;/span&gt;" style="text;html=1;strokeColor=none;fillColor=none;align=left;verticalAlign=middle;whiteSpace=wrap;rounded=0;" parent="1" vertex="1">
          <mxGeometry x="100" y="140" width="460" height="30" as="geometry" />
        </mxCell>
        <mxCell id="DYX63zbx7CjbTbCFi6AU-6" value="" style="group" parent="1" vertex="1" connectable="0">
          <mxGeometry x="20" y="160" width="760" height="60" as="geometry" />
        </mxCell>
        <mxCell id="DYX63zbx7CjbTbCFi6AU-4" value="" style="endArrow=none;html=1;rounded=0;exitX=1;exitY=1;exitDx=0;exitDy=0;" parent="DYX63zbx7CjbTbCFi6AU-6" source="DYX63zbx7CjbTbCFi6AU-5" edge="1">
          <mxGeometry width="50" height="50" relative="1" as="geometry">
            <mxPoint x="70" y="60" as="sourcePoint" />
            <mxPoint x="730" y="60" as="targetPoint" />
          </mxGeometry>
        </mxCell>
        <mxCell id="DYX63zbx7CjbTbCFi6AU-5" value="1" style="rounded=0;whiteSpace=wrap;html=1;" parent="DYX63zbx7CjbTbCFi6AU-6" vertex="1">
          <mxGeometry width="60" height="60" as="geometry" />
        </mxCell>
        <mxCell id="DYX63zbx7CjbTbCFi6AU-18" value="The warrior: What is this place? And who are you? Some kind of&amp;nbsp;bubble?" style="text;html=1;strokeColor=none;fillColor=none;align=left;verticalAlign=middle;whiteSpace=wrap;rounded=0;" parent="DYX63zbx7CjbTbCFi6AU-6" vertex="1">
          <mxGeometry x="80" y="15" width="380" height="30" as="geometry" />
        </mxCell>
        <mxCell id="DYX63zbx7CjbTbCFi6AU-3" value="Чорний екран, видно тільки підлогу і духа." style="text;html=1;strokeColor=none;fillColor=none;align=center;verticalAlign=middle;whiteSpace=wrap;rounded=0;" parent="1" vertex="1">
          <mxGeometry x="230" y="100" width="290" height="30" as="geometry" />
        </mxCell>
        <mxCell id="DYX63zbx7CjbTbCFi6AU-20" value="" style="group" parent="1" vertex="1" connectable="0">
          <mxGeometry x="20" y="270" width="760" height="60" as="geometry" />
        </mxCell>
        <mxCell id="DYX63zbx7CjbTbCFi6AU-21" value="" style="endArrow=none;html=1;rounded=0;exitX=1;exitY=1;exitDx=0;exitDy=0;" parent="DYX63zbx7CjbTbCFi6AU-20" source="DYX63zbx7CjbTbCFi6AU-22" edge="1">
          <mxGeometry width="50" height="50" relative="1" as="geometry">
            <mxPoint x="70" y="60" as="sourcePoint" />
            <mxPoint x="730" y="60" as="targetPoint" />
          </mxGeometry>
        </mxCell>
        <mxCell id="DYX63zbx7CjbTbCFi6AU-22" value="2" style="rounded=0;whiteSpace=wrap;html=1;" parent="DYX63zbx7CjbTbCFi6AU-20" vertex="1">
          <mxGeometry width="60" height="60" as="geometry" />
        </mxCell>
        <mxCell id="DYX63zbx7CjbTbCFi6AU-19" value="The Spirit: I am a spirit, you dork!. And this is Ormuzd&amp;nbsp;Catacombs. Here we in safe. Look here..." style="text;html=1;strokeColor=none;fillColor=none;align=left;verticalAlign=middle;whiteSpace=wrap;rounded=0;" parent="DYX63zbx7CjbTbCFi6AU-20" vertex="1">
          <mxGeometry x="80" y="10" width="460" height="30" as="geometry" />
        </mxCell>
        <mxCell id="DYX63zbx7CjbTbCFi6AU-9" value="" style="endArrow=none;html=1;rounded=0;exitX=1;exitY=1;exitDx=0;exitDy=0;" parent="1" source="DYX63zbx7CjbTbCFi6AU-10" edge="1">
          <mxGeometry width="50" height="50" relative="1" as="geometry">
            <mxPoint x="90" y="520" as="sourcePoint" />
            <mxPoint x="750" y="560" as="targetPoint" />
          </mxGeometry>
        </mxCell>
        <mxCell id="DYX63zbx7CjbTbCFi6AU-10" value="4" style="rounded=0;whiteSpace=wrap;html=1;" parent="1" vertex="1">
          <mxGeometry x="10" y="500" width="60" height="60" as="geometry" />
        </mxCell>
        <mxCell id="DYX63zbx7CjbTbCFi6AU-7" value="The Spirit: In the far land was a king... who wants to save his doughter... and he did it. He makes a deal with god of Darkness. Ahriman.&amp;nbsp;&amp;nbsp;Princess Elika woke up from an eternal sleep. But she was against such a concession by her father. She was to protect the tree that was Ahriman&#39;s prison. She escaped from the castle. The king ordered the servants to catch up and catch the princess." style="text;html=1;strokeColor=none;fillColor=none;align=left;verticalAlign=middle;whiteSpace=wrap;rounded=0;" parent="1" vertex="1">
          <mxGeometry x="90" y="480" width="660" height="80" as="geometry" />
        </mxCell>
        <mxCell id="DYX63zbx7CjbTbCFi6AU-25" value="" style="group" parent="1" vertex="1" connectable="0">
          <mxGeometry x="20" y="370" width="760" height="60" as="geometry" />
        </mxCell>
        <mxCell id="DYX63zbx7CjbTbCFi6AU-26" value="" style="endArrow=none;html=1;rounded=0;exitX=1;exitY=1;exitDx=0;exitDy=0;" parent="DYX63zbx7CjbTbCFi6AU-25" source="DYX63zbx7CjbTbCFi6AU-27" edge="1">
          <mxGeometry width="50" height="50" relative="1" as="geometry">
            <mxPoint x="70" y="60" as="sourcePoint" />
            <mxPoint x="730" y="60" as="targetPoint" />
          </mxGeometry>
        </mxCell>
        <mxCell id="DYX63zbx7CjbTbCFi6AU-27" value="3" style="rounded=0;whiteSpace=wrap;html=1;" parent="DYX63zbx7CjbTbCFi6AU-25" vertex="1">
          <mxGeometry width="60" height="60" as="geometry" />
        </mxCell>
        <mxCell id="DYX63zbx7CjbTbCFi6AU-11" value="Дух відлітає і зявляється квадрат, де проігрується сцена з гри про принца персії" style="text;html=1;strokeColor=none;fillColor=none;align=center;verticalAlign=middle;whiteSpace=wrap;rounded=0;" parent="DYX63zbx7CjbTbCFi6AU-25" vertex="1">
          <mxGeometry x="80" y="10" width="620" height="30" as="geometry" />
        </mxCell>
        <mxCell id="DYX63zbx7CjbTbCFi6AU-29" value="" style="endArrow=none;html=1;rounded=0;exitX=1;exitY=1;exitDx=0;exitDy=0;" parent="1" source="DYX63zbx7CjbTbCFi6AU-30" edge="1">
          <mxGeometry width="50" height="50" relative="1" as="geometry">
            <mxPoint x="90" y="650" as="sourcePoint" />
            <mxPoint x="750" y="690" as="targetPoint" />
          </mxGeometry>
        </mxCell>
        <mxCell id="DYX63zbx7CjbTbCFi6AU-30" value="5" style="rounded=0;whiteSpace=wrap;html=1;" parent="1" vertex="1">
          <mxGeometry x="10" y="630" width="60" height="60" as="geometry" />
        </mxCell>
        <mxCell id="DYX63zbx7CjbTbCFi6AU-32" value="Fate is a very strange thing. You just wonder how the destinies of two completely different people can intertwine.On the way to Ahriman&#39;s prison. Elika met a stranger who got lost in a sandstorm. And so it happened that the storm, by the hand of fate, sent a stranger to protect Elika. This stranger turned out to be the prince of Persia himself, who had defied fate more than once." style="text;html=1;strokeColor=none;fillColor=none;align=center;verticalAlign=middle;whiteSpace=wrap;rounded=0;" parent="1" vertex="1">
          <mxGeometry x="80" y="585" width="620" height="100" as="geometry" />
        </mxCell>
        <mxCell id="DYX63zbx7CjbTbCFi6AU-33" value="6" style="rounded=0;whiteSpace=wrap;html=1;" parent="1" vertex="1">
          <mxGeometry x="10" y="755" width="60" height="60" as="geometry" />
        </mxCell>
        <mxCell id="DYX63zbx7CjbTbCFi6AU-34" value="The prince protected the princess. But the king fulfilled his promise and released Archriman. The prince and Elika tried to imprison Ahriman back, and Elika even sacrificed her life to restore the tree that held Ahriman back. But for the prince, Elika&#39;s life was more important. And now Ahriman is still at large. My name is Lunara. I am a priestess of the god Ormuzd. God of life. I&#39;m sorry, but I can&#39;t show my true appearance right now. I spent all my strength to summon you here. We need to get to the temple and protect the tree that sustains life in these lands. Ahriman&#39;s warriors will be here soon. We have to hurry. On the way to the temple, there is a family of light. It will help me regain strength." style="text;html=1;strokeColor=none;fillColor=none;align=center;verticalAlign=middle;whiteSpace=wrap;rounded=0;" parent="1" vertex="1">
          <mxGeometry x="80" y="710" width="620" height="100" as="geometry" />
        </mxCell>
        <mxCell id="DYX63zbx7CjbTbCFi6AU-35" value="" style="endArrow=none;html=1;rounded=0;exitX=1;exitY=1;exitDx=0;exitDy=0;" parent="1" edge="1">
          <mxGeometry width="50" height="50" relative="1" as="geometry">
            <mxPoint x="70" y="815" as="sourcePoint" />
            <mxPoint x="750" y="815" as="targetPoint" />
          </mxGeometry>
        </mxCell>
        <mxCell id="DYX63zbx7CjbTbCFi6AU-36" value="7" style="rounded=0;whiteSpace=wrap;html=1;" parent="1" vertex="1">
          <mxGeometry x="10" y="895" width="60" height="60" as="geometry" />
        </mxCell>
        <mxCell id="DYX63zbx7CjbTbCFi6AU-37" value="When you ready, go follow me." style="text;html=1;strokeColor=none;fillColor=none;align=center;verticalAlign=middle;whiteSpace=wrap;rounded=0;" parent="1" vertex="1">
          <mxGeometry x="80" y="890" width="620" height="60" as="geometry" />
        </mxCell>
        <mxCell id="DYX63zbx7CjbTbCFi6AU-38" value="" style="endArrow=none;html=1;rounded=0;exitX=1;exitY=1;exitDx=0;exitDy=0;" parent="1" edge="1">
          <mxGeometry width="50" height="50" relative="1" as="geometry">
            <mxPoint x="70" y="955" as="sourcePoint" />
            <mxPoint x="750" y="955" as="targetPoint" />
          </mxGeometry>
        </mxCell>
      </root>
    </mxGraphModel>
  </diagram>
</mxfile>
